<svg width="32" height="32" viewBox="0 0 32 32" fill="none" xmlns="http://www.w3.org/2000/svg">
<g filter="url(#filter0_d_49_1872)">
<mask id="path-1-inside-1_49_1872" fill="white">
<path d="M22.7168 18.3603C21.7752 18.3603 20.8896 17.9937 20.2237 17.3282L16.624 13.7283C16.3713 13.4749 15.9308 13.4757 15.6781 13.7283L12.0653 17.3413C11.3994 18.0069 10.5138 18.3735 9.57219 18.3735H8.86279L13.422 22.9326C14.8458 24.3564 17.1543 24.3564 18.5782 22.9326L23.1504 18.3603H22.7168Z"/>
<path d="M9.57211 5.62691C10.5137 5.62691 11.3993 5.99354 12.0652 6.65907L15.678 10.2726C15.9382 10.5329 16.3631 10.5339 16.6239 10.2723L20.2236 6.67224C20.8895 6.00671 21.7751 5.64008 22.7167 5.64008H23.1503L18.5783 1.06793C17.1542 -0.355978 14.8457 -0.355978 13.4219 1.06793L8.86292 5.62693L9.57211 5.62691Z"/>
<path d="M26.9321 9.42214L24.1692 6.65918C24.1084 6.68354 24.0425 6.69875 23.9729 6.69875H22.7167C22.0672 6.69875 21.4315 6.96218 20.9725 7.42144L17.3729 11.0212C17.0361 11.358 16.5934 11.5266 16.1512 11.5266C15.7086 11.5266 15.2663 11.358 14.9295 11.0215L11.3163 7.40828C10.8574 6.94892 10.2216 6.6856 9.57212 6.6856H8.02745C7.96156 6.6856 7.9 6.67007 7.84187 6.64818L5.06793 9.42214C3.64402 10.846 3.64402 13.1545 5.06793 14.5784L7.84176 17.3523C7.89999 17.3304 7.96156 17.3148 8.02745 17.3148H9.57212C10.2216 17.3148 10.8574 17.0515 11.3163 16.5923L14.9292 12.9794C15.5822 12.3269 16.7206 12.3267 17.3729 12.9797L20.9725 16.5791C21.4315 17.0383 22.0672 17.3018 22.7167 17.3018H23.9729C24.0425 17.3018 24.1084 17.317 24.1692 17.3414L26.9321 14.5784C28.3559 13.1545 28.3559 10.846 26.9321 9.42214Z"/>
</mask>
<path d="M20.2237 17.3282L18.8095 18.7424L18.8099 18.7427L20.2237 17.3282ZM16.624 13.7283L15.208 15.1407L15.2098 15.1425L16.624 13.7283ZM15.6781 13.7283L14.2639 12.3141L14.2639 12.3142L15.6781 13.7283ZM12.0653 17.3413L13.4791 18.7559L13.4795 18.7555L12.0653 17.3413ZM8.86279 18.3735V16.3735H4.0343L7.44859 19.7877L8.86279 18.3735ZM13.422 22.9326L14.8362 21.5184L14.8362 21.5184L13.422 22.9326ZM18.5782 22.9326L19.9924 24.3469L19.9925 24.3468L18.5782 22.9326ZM23.1504 18.3603L24.5646 19.7745L27.9787 16.3603H23.1504V18.3603ZM9.57211 5.62691V3.62691H9.57207L9.57211 5.62691ZM12.0652 6.65907L13.4795 5.24499L13.479 5.24452L12.0652 6.65907ZM15.678 10.2726L17.0926 8.85869L17.0924 8.85852L15.678 10.2726ZM16.6239 10.2723L15.2096 8.85815L15.2077 8.86009L16.6239 10.2723ZM20.2236 6.67224L18.8098 5.25769L18.8094 5.25809L20.2236 6.67224ZM23.1503 5.64008V7.64008H27.9786L24.5645 4.22589L23.1503 5.64008ZM18.5783 1.06793L19.9925 -0.346261L19.9924 -0.346331L18.5783 1.06793ZM13.4219 1.06793L14.8361 2.48215L14.8362 2.48209L13.4219 1.06793ZM8.86292 5.62693L7.4487 4.21271L4.03439 7.62703L8.86296 7.62693L8.86292 5.62693ZM26.9321 9.42214L28.3464 8.00798L28.3464 8.00792L26.9321 9.42214ZM24.1692 6.65918L25.5834 5.24497L24.6504 4.31195L23.4255 4.80259L24.1692 6.65918ZM20.9725 7.42144L22.3868 8.83563L22.3873 8.83515L20.9725 7.42144ZM17.3729 11.0212L18.7871 12.4354L18.7872 12.4354L17.3729 11.0212ZM14.9295 11.0215L13.5153 12.4357L13.5157 12.4362L14.9295 11.0215ZM11.3163 7.40828L9.9014 8.82183L9.90207 8.82249L11.3163 7.40828ZM7.84187 6.64818L8.54683 4.77654L7.33974 4.32188L6.42766 5.23397L7.84187 6.64818ZM5.06793 9.42214L6.48215 10.8363L6.48215 10.8363L5.06793 9.42214ZM5.06793 14.5784L6.48215 13.1642L6.48215 13.1642L5.06793 14.5784ZM7.84176 17.3523L6.42755 18.7665L7.33892 19.6778L8.54539 19.2244L7.84176 17.3523ZM11.3163 16.5923L9.90207 15.1781L9.90157 15.1786L11.3163 16.5923ZM14.9292 12.9794L13.5155 11.5646L13.5149 11.5652L14.9292 12.9794ZM17.3729 12.9797L15.958 14.3932L15.9588 14.3939L17.3729 12.9797ZM20.9725 16.5791L22.3873 15.1654L22.3867 15.1648L20.9725 16.5791ZM24.1692 17.3414L23.425 19.1977L24.6501 19.6889L25.5834 18.7556L24.1692 17.3414ZM26.9321 14.5784L28.3464 15.9926L28.3464 15.9926L26.9321 14.5784ZM22.7168 16.3603C22.3053 16.3603 21.9283 16.2042 21.6376 15.9136L18.8099 18.7427C19.8509 19.7833 21.2451 20.3603 22.7168 20.3603V16.3603ZM21.638 15.914L18.0382 12.3142L15.2098 15.1425L18.8095 18.7424L21.638 15.914ZM18.04 12.3159C17.0034 11.2766 15.2951 11.2829 14.2639 12.3141L17.0924 15.1425C16.8048 15.4301 16.4509 15.5384 16.1521 15.5386C15.853 15.5387 15.497 15.4305 15.208 15.1407L18.04 12.3159ZM14.2639 12.3142L10.651 15.9271L13.4795 18.7555L17.0924 15.1425L14.2639 12.3142ZM10.6514 15.9268C10.3607 16.2173 9.98367 16.3735 9.57219 16.3735V20.3735C11.0439 20.3735 12.4381 19.7964 13.4791 18.7559L10.6514 15.9268ZM9.57219 16.3735H8.86279V20.3735H9.57219V16.3735ZM7.44859 19.7877L12.0078 24.3468L14.8362 21.5184L10.277 16.9593L7.44859 19.7877ZM12.0078 24.3468C14.2126 26.5517 17.7875 26.5516 19.9924 24.3469L17.1641 21.5183C16.5212 22.1612 15.4789 22.1611 14.8362 21.5184L12.0078 24.3468ZM19.9925 24.3468L24.5646 19.7745L21.7361 16.9461L17.164 21.5184L19.9925 24.3468ZM23.1504 16.3603H22.7168V20.3603H23.1504V16.3603ZM9.57211 7.62691C9.9836 7.62691 10.3606 7.78308 10.6513 8.07362L13.479 5.24452C12.438 4.204 11.0438 3.62691 9.57211 3.62691V7.62691ZM10.6508 8.07316L14.2637 11.6867L17.0924 8.85852L13.4795 5.24499L10.6508 8.07316ZM14.2635 11.6865C15.3026 12.726 16.9956 12.7321 18.0401 11.6845L15.2077 8.86009C15.7306 8.3357 16.5739 8.33979 17.0926 8.85869L14.2635 11.6865ZM18.0382 11.6864L21.6379 8.08639L18.8094 5.25809L15.2097 8.85815L18.0382 11.6864ZM21.6375 8.0868C21.9282 7.79624 22.3052 7.64008 22.7167 7.64008V3.64008C21.245 3.64008 19.8508 4.21718 18.8098 5.25769L21.6375 8.0868ZM22.7167 7.64008H23.1503V3.64008H22.7167V7.64008ZM24.5645 4.22589L19.9925 -0.346261L17.164 2.48213L21.736 7.05428L24.5645 4.22589ZM19.9924 -0.346331C17.7874 -2.55116 14.2125 -2.55132 12.0076 -0.346225L14.8362 2.48209C15.4788 1.83936 16.5211 1.83921 17.1641 2.4822L19.9924 -0.346331ZM12.0077 -0.346279L7.4487 4.21271L10.2771 7.04114L14.8361 2.48215L12.0077 -0.346279ZM8.86296 7.62693L9.57215 7.62691L9.57207 3.62691L8.86287 3.62693L8.86296 7.62693ZM28.3464 8.00792L25.5834 5.24497L22.755 8.07339L25.5179 10.8363L28.3464 8.00792ZM23.4255 4.80259C23.5605 4.7485 23.7473 4.69875 23.9729 4.69875V8.69875C24.3377 8.69875 24.6562 8.61858 24.9129 8.51577L23.4255 4.80259ZM23.9729 4.69875H22.7167V8.69875H23.9729V4.69875ZM22.7167 4.69875C21.5367 4.69875 20.392 5.17296 19.5578 6.00772L22.3873 8.83515C22.4709 8.7514 22.5977 8.69875 22.7167 8.69875V4.69875ZM19.5583 6.00725L15.9587 9.60697L18.7872 12.4354L22.3868 8.83563L19.5583 6.00725ZM15.9587 9.60696C16.013 9.55267 16.0862 9.52657 16.1512 9.52657V13.5266C17.1007 13.5266 18.0591 13.1634 18.7871 12.4354L15.9587 9.60696ZM16.1512 9.52657C16.2158 9.52657 16.289 9.55262 16.3433 9.60682L13.5157 12.4362C14.2435 13.1634 15.2013 13.5266 16.1512 13.5266V9.52657ZM16.3437 9.60727L12.7305 5.99406L9.90207 8.82249L13.5153 12.4357L16.3437 9.60727ZM12.7312 5.99473C11.8968 5.15956 10.7519 4.6856 9.57212 4.6856V8.6856C9.6913 8.6856 9.81794 8.73828 9.9014 8.82183L12.7312 5.99473ZM9.57212 4.6856H8.02745V8.6856H9.57212V4.6856ZM8.02745 4.6856C8.27909 4.6856 8.46476 4.74563 8.54683 4.77654L7.13692 8.51982C7.33523 8.59451 7.64403 8.6856 8.02745 8.6856V4.6856ZM6.42766 5.23397L3.65371 8.00793L6.48215 10.8363L9.25609 8.06239L6.42766 5.23397ZM3.65371 8.00792C1.44876 10.2129 1.44876 13.7877 3.65371 15.9926L6.48215 13.1642C5.83928 12.5213 5.83928 11.4792 6.48215 10.8363L3.65371 8.00792ZM3.65371 15.9926L6.42755 18.7665L9.25598 15.938L6.48215 13.1642L3.65371 15.9926ZM8.54539 19.2244C8.46457 19.2548 8.27914 19.3148 8.02745 19.3148V15.3148C7.64398 15.3148 7.33542 15.406 7.13813 15.4801L8.54539 19.2244ZM8.02745 19.3148H9.57212V15.3148H8.02745V19.3148ZM9.57212 19.3148C10.7519 19.3148 11.8967 18.8409 12.731 18.006L9.90157 15.1786C9.81804 15.2621 9.69132 15.3148 9.57212 15.3148V19.3148ZM12.7305 18.0065L16.3434 14.3936L13.5149 11.5652L9.90207 15.1781L12.7305 18.0065ZM16.3428 14.3942C16.2545 14.4824 16.1747 14.49 16.1512 14.49C16.1277 14.49 16.047 14.4823 15.958 14.3932L18.7878 11.5662C17.3536 10.1305 14.9488 10.1325 13.5155 11.5646L16.3428 14.3942ZM15.9588 14.3939L19.5584 17.9933L22.3867 15.1648L18.7871 11.5654L15.9588 14.3939ZM19.5578 17.9928C20.392 18.8276 21.5367 19.3018 22.7167 19.3018V15.3018C22.5977 15.3018 22.4709 15.2491 22.3873 15.1654L19.5578 17.9928ZM22.7167 19.3018H23.9729V15.3018H22.7167V19.3018ZM23.9729 19.3018C23.7476 19.3018 23.5607 19.2521 23.425 19.1977L24.9134 15.485C24.656 15.3818 24.3373 15.3018 23.9729 15.3018V19.3018ZM25.5834 18.7556L28.3464 15.9926L25.5179 13.1642L22.755 15.9271L25.5834 18.7556ZM28.3464 15.9926C30.5512 13.7876 30.5512 10.2129 28.3464 8.00798L25.5179 10.8363C26.1607 11.4792 26.1607 12.5214 25.5179 13.1642L28.3464 15.9926Z" fill="white" mask="url(#path-1-inside-1_49_1872)"/>
</g>
<defs>
<filter id="filter0_d_49_1872" x="0" y="0" width="32" height="32.0005" filterUnits="userSpaceOnUse" color-interpolation-filters="sRGB">
<feFlood flood-opacity="0" result="BackgroundImageFix"/>
<feColorMatrix in="SourceAlpha" type="matrix" values="0 0 0 0 0 0 0 0 0 0 0 0 0 0 0 0 0 0 127 0" result="hardAlpha"/>
<feOffset dy="4"/>
<feGaussianBlur stdDeviation="2"/>
<feComposite in2="hardAlpha" operator="out"/>
<feColorMatrix type="matrix" values="0 0 0 0 0 0 0 0 0 0 0 0 0 0 0 0 0 0 0.25 0"/>
<feBlend mode="normal" in2="BackgroundImageFix" result="effect1_dropShadow_49_1872"/>
<feBlend mode="normal" in="SourceGraphic" in2="effect1_dropShadow_49_1872" result="shape"/>
</filter>
</defs>
</svg>
