<svg width="860" height="26" viewBox="0 0 860 26" fill="none" xmlns="http://www.w3.org/2000/svg">
<path fill-rule="evenodd" clip-rule="evenodd" d="M4 5.00023C4 4.44794 4.44772 4.00023 5 4.00023H27C27.5523 4.00023 28 4.44794 28 5.00023C28 5.55251 27.5523 6.00023 27 6.00023H5C4.44772 6.00023 4 5.55251 4 5.00023ZM4 13.0002C4 12.4479 4.44772 12.0002 5 12.0002H27C27.5523 12.0002 28 12.4479 28 13.0002C28 13.5525 27.5523 14.0002 27 14.0002H5C4.44772 14.0002 4 13.5525 4 13.0002ZM4 21.0002C4 20.4479 4.44772 20.0002 5 20.0002H27C27.5523 20.0002 28 20.4479 28 21.0002C28 21.5525 27.5523 22.0002 27 22.0002H5C4.44772 22.0002 4 21.5525 4 21.0002Z" fill="white"/>
<path fill-rule="evenodd" clip-rule="evenodd" d="M82.2636 4.26383C82.6151 3.91236 83.1849 3.91236 83.5364 4.26383L91 11.7274L98.4636 4.26383C98.8151 3.91236 99.3849 3.91236 99.7364 4.26383C100.088 4.6153 100.088 5.18515 99.7364 5.53663L92.2728 13.0002L99.7364 20.4638C100.088 20.8153 100.088 21.3852 99.7364 21.7366C99.3849 22.0881 98.8151 22.0881 98.4636 21.7366L91 14.273L83.5364 21.7366C83.1849 22.0881 82.6151 22.0881 82.2636 21.7366C81.9121 21.3852 81.9121 20.8153 82.2636 20.4638L89.7272 13.0002L82.2636 5.53663C81.9121 5.18515 81.9121 4.6153 82.2636 4.26383Z" fill="white"/>
<path fill-rule="evenodd" clip-rule="evenodd" d="M159.5 10.0002C159.5 9.44794 159.948 9.00023 160.5 9.00023H173.5C174.052 9.00023 174.5 9.44794 174.5 10.0002C174.5 10.5525 174.052 11.0002 173.5 11.0002H160.5C159.948 11.0002 159.5 10.5525 159.5 10.0002Z" fill="white"/>
<path fill-rule="evenodd" clip-rule="evenodd" d="M159.5 14.0002C159.5 13.4479 159.948 13.0002 160.5 13.0002H173.5C174.052 13.0002 174.5 13.4479 174.5 14.0002C174.5 14.5525 174.052 15.0002 173.5 15.0002H160.5C159.948 15.0002 159.5 14.5525 159.5 14.0002Z" fill="white"/>
<path fill-rule="evenodd" clip-rule="evenodd" d="M154.586 2.58602C154.961 2.21094 155.47 2.00023 156 2.00023H178C178.53 2.00023 179.039 2.21094 179.414 2.58602C179.789 2.96109 180 3.4698 180 4.00023V23.0002C180 23.3468 179.821 23.6687 179.526 23.8509C179.231 24.0331 178.863 24.0497 178.553 23.8947L175 22.1183L171.447 23.8947C171.166 24.0354 170.834 24.0354 170.553 23.8947L167 22.1183L163.447 23.8947C163.166 24.0354 162.834 24.0354 162.553 23.8947L159 22.1183L155.447 23.8947C155.137 24.0497 154.769 24.0331 154.474 23.8509C154.179 23.6687 154 23.3468 154 23.0002V4.00023C154 3.4698 154.211 2.96109 154.586 2.58602ZM178 4.00023L156 4.00023L156 21.3822L158.553 20.1058C158.834 19.965 159.166 19.965 159.447 20.1058L163 21.8822L166.553 20.1058C166.834 19.965 167.166 19.965 167.447 20.1058L171 21.8822L174.553 20.1058C174.834 19.965 175.166 19.965 175.447 20.1058L178 21.3822V4.00023Z" fill="white"/>
<path fill-rule="evenodd" clip-rule="evenodd" d="M234 5.00023C234 3.89566 235.023 3.00023 236.286 3.00023H263.714C264.977 3.00023 266 3.89566 266 5.00023V21.0002C266 22.1048 264.977 23.0002 263.714 23.0002H236.286C235.023 23.0002 234 22.1048 234 21.0002V5.00023ZM263.714 5.00023H236.286V21.0002H263.714V5.00023Z" fill="white"/>
<path fill-rule="evenodd" clip-rule="evenodd" d="M254.571 18.0002C254.571 17.4479 255.083 17.0002 255.714 17.0002H260.286C260.917 17.0002 261.429 17.4479 261.429 18.0002C261.429 18.5525 260.917 19.0002 260.286 19.0002H255.714C255.083 19.0002 254.571 18.5525 254.571 18.0002Z" fill="white"/>
<path fill-rule="evenodd" clip-rule="evenodd" d="M247.714 18.0002C247.714 17.4479 248.226 17.0002 248.857 17.0002H251.143C251.774 17.0002 252.286 17.4479 252.286 18.0002C252.286 18.5525 251.774 19.0002 251.143 19.0002H248.857C248.226 19.0002 247.714 18.5525 247.714 18.0002Z" fill="white"/>
<path fill-rule="evenodd" clip-rule="evenodd" d="M234 9.11351C234 8.56123 234.512 8.11351 235.143 8.11351H264.857C265.488 8.11351 266 8.56123 266 9.11351C266 9.66579 265.488 10.1135 264.857 10.1135H235.143C234.512 10.1135 234 9.66579 234 9.11351Z" fill="white"/>
<path fill-rule="evenodd" clip-rule="evenodd" d="M331.707 2.29312C332.098 2.68365 332.098 3.31681 331.707 3.70734L322.414 13.0002L331.707 22.2931C332.098 22.6836 332.098 23.3168 331.707 23.7073C331.317 24.0979 330.683 24.0979 330.293 23.7073L320.293 13.7073C319.902 13.3168 319.902 12.6836 320.293 12.2931L330.293 2.29312C330.683 1.9026 331.317 1.9026 331.707 2.29312Z" fill="white"/>
<path fill-rule="evenodd" clip-rule="evenodd" d="M386.293 2.29312C386.683 1.9026 387.317 1.9026 387.707 2.29312L397.707 12.2931C398.098 12.6836 398.098 13.3168 397.707 13.7073L387.707 23.7073C387.317 24.0979 386.683 24.0979 386.293 23.7073C385.902 23.3168 385.902 22.6836 386.293 22.2931L395.586 13.0002L386.293 3.70734C385.902 3.31681 385.902 2.68365 386.293 2.29312Z" fill="white"/>
<mask id="path-7-inside-1_9_4927" fill="white">
<path d="M470.717 19.3603C469.775 19.3603 468.89 18.9937 468.224 18.3282L464.624 14.7283C464.371 14.4749 463.931 14.4757 463.678 14.7283L460.065 18.3413C459.399 19.0069 458.514 19.3735 457.572 19.3735H456.863L461.422 23.9326C462.846 25.3564 465.154 25.3564 466.578 23.9326L471.15 19.3603H470.717Z"/>
<path d="M457.572 6.62691C458.514 6.62691 459.399 6.99354 460.065 7.65907L463.678 11.2726C463.938 11.5329 464.363 11.5339 464.624 11.2723L468.224 7.67224C468.89 7.00671 469.775 6.64008 470.717 6.64008H471.15L466.578 2.06793C465.154 0.644022 462.846 0.644022 461.422 2.06793L456.863 6.62693L457.572 6.62691Z"/>
<path d="M474.932 10.4221L472.169 7.65918C472.108 7.68354 472.042 7.69875 471.973 7.69875H470.717C470.067 7.69875 469.431 7.96218 468.973 8.42144L465.373 12.0212C465.036 12.358 464.593 12.5266 464.151 12.5266C463.709 12.5266 463.266 12.358 462.929 12.0215L459.316 8.40828C458.857 7.94892 458.222 7.6856 457.572 7.6856H456.027C455.962 7.6856 455.9 7.67007 455.842 7.64818L453.068 10.4221C451.644 11.846 451.644 14.1545 453.068 15.5784L455.842 18.3523C455.9 18.3304 455.962 18.3148 456.027 18.3148H457.572C458.222 18.3148 458.857 18.0515 459.316 17.5923L462.929 13.9794C463.582 13.3269 464.721 13.3267 465.373 13.9797L468.973 17.5791C469.431 18.0383 470.067 18.3018 470.717 18.3018H471.973C472.042 18.3018 472.108 18.317 472.169 18.3414L474.932 15.5784C476.356 14.1545 476.356 11.846 474.932 10.4221Z"/>
</mask>
<path d="M468.224 18.3282L466.809 19.7424L466.81 19.7427L468.224 18.3282ZM464.624 14.7283L463.208 16.1407L463.21 16.1425L464.624 14.7283ZM463.678 14.7283L462.264 13.3141L462.264 13.3142L463.678 14.7283ZM460.065 18.3413L461.479 19.7559L461.479 19.7555L460.065 18.3413ZM456.863 19.3735V17.3735H452.034L455.449 20.7877L456.863 19.3735ZM461.422 23.9326L462.836 22.5184L462.836 22.5184L461.422 23.9326ZM466.578 23.9326L467.992 25.3469L467.992 25.3468L466.578 23.9326ZM471.15 19.3603L472.565 20.7745L475.979 17.3603H471.15V19.3603ZM457.572 6.62691V4.62691H457.572L457.572 6.62691ZM460.065 7.65907L461.48 6.24499L461.479 6.24452L460.065 7.65907ZM463.678 11.2726L465.093 9.85869L465.092 9.85852L463.678 11.2726ZM464.624 11.2723L463.21 9.85815L463.208 9.86009L464.624 11.2723ZM468.224 7.67224L466.81 6.25769L466.809 6.25809L468.224 7.67224ZM471.15 6.64008V8.64008H475.979L472.565 5.22589L471.15 6.64008ZM466.578 2.06793L467.992 0.653739L467.992 0.653669L466.578 2.06793ZM461.422 2.06793L462.836 3.48215L462.836 3.48209L461.422 2.06793ZM456.863 6.62693L455.449 5.21271L452.034 8.62703L456.863 8.62693L456.863 6.62693ZM474.932 10.4221L476.346 9.00798L476.346 9.00792L474.932 10.4221ZM472.169 7.65918L473.583 6.24497L472.65 5.31195L471.426 5.80259L472.169 7.65918ZM468.973 8.42144L470.387 9.83563L470.387 9.83515L468.973 8.42144ZM465.373 12.0212L466.787 13.4354L466.787 13.4354L465.373 12.0212ZM462.929 12.0215L461.515 13.4357L461.516 13.4362L462.929 12.0215ZM459.316 8.40828L457.901 9.82183L457.902 9.82249L459.316 8.40828ZM455.842 7.64818L456.547 5.77654L455.34 5.32188L454.428 6.23397L455.842 7.64818ZM453.068 10.4221L454.482 11.8363L454.482 11.8363L453.068 10.4221ZM453.068 15.5784L454.482 14.1642L454.482 14.1642L453.068 15.5784ZM455.842 18.3523L454.428 19.7665L455.339 20.6778L456.545 20.2244L455.842 18.3523ZM459.316 17.5923L457.902 16.1781L457.902 16.1786L459.316 17.5923ZM462.929 13.9794L461.516 12.5646L461.515 12.5652L462.929 13.9794ZM465.373 13.9797L463.958 15.3932L463.959 15.3939L465.373 13.9797ZM468.973 17.5791L470.387 16.1654L470.387 16.1648L468.973 17.5791ZM472.169 18.3414L471.425 20.1977L472.65 20.6889L473.583 19.7556L472.169 18.3414ZM474.932 15.5784L476.346 16.9926L476.346 16.9926L474.932 15.5784ZM470.717 17.3603C470.305 17.3603 469.928 17.2042 469.638 16.9136L466.81 19.7427C467.851 20.7833 469.245 21.3603 470.717 21.3603V17.3603ZM469.638 16.914L466.038 13.3142L463.21 16.1425L466.809 19.7424L469.638 16.914ZM466.04 13.3159C465.003 12.2766 463.295 12.2829 462.264 13.3141L465.092 16.1425C464.805 16.4301 464.451 16.5384 464.152 16.5386C463.853 16.5387 463.497 16.4305 463.208 16.1407L466.04 13.3159ZM462.264 13.3142L458.651 16.9271L461.479 19.7555L465.092 16.1425L462.264 13.3142ZM458.651 16.9268C458.361 17.2173 457.984 17.3735 457.572 17.3735V21.3735C459.044 21.3735 460.438 20.7964 461.479 19.7559L458.651 16.9268ZM457.572 17.3735H456.863V21.3735H457.572V17.3735ZM455.449 20.7877L460.008 25.3468L462.836 22.5184L458.277 17.9593L455.449 20.7877ZM460.008 25.3468C462.213 27.5517 465.787 27.5516 467.992 25.3469L465.164 22.5183C464.521 23.1612 463.479 23.1611 462.836 22.5184L460.008 25.3468ZM467.992 25.3468L472.565 20.7745L469.736 17.9461L465.164 22.5184L467.992 25.3468ZM471.15 17.3603H470.717V21.3603H471.15V17.3603ZM457.572 8.62691C457.984 8.62691 458.361 8.78308 458.651 9.07362L461.479 6.24452C460.438 5.204 459.044 4.62691 457.572 4.62691V8.62691ZM458.651 9.07316L462.264 12.6867L465.092 9.85852L461.48 6.24499L458.651 9.07316ZM462.264 12.6865C463.303 13.726 464.996 13.7321 466.04 12.6845L463.208 9.86009C463.731 9.3357 464.574 9.33979 465.093 9.85869L462.264 12.6865ZM466.038 12.6864L469.638 9.08639L466.809 6.25809L463.21 9.85815L466.038 12.6864ZM469.638 9.0868C469.928 8.79624 470.305 8.64008 470.717 8.64008V4.64008C469.245 4.64008 467.851 5.21718 466.81 6.25769L469.638 9.0868ZM470.717 8.64008H471.15V4.64008H470.717V8.64008ZM472.565 5.22589L467.992 0.653739L465.164 3.48213L469.736 8.05428L472.565 5.22589ZM467.992 0.653669C465.787 -1.55116 462.213 -1.55132 460.008 0.653775L462.836 3.48209C463.479 2.83936 464.521 2.83921 465.164 3.4822L467.992 0.653669ZM460.008 0.653721L455.449 5.21271L458.277 8.04114L462.836 3.48215L460.008 0.653721ZM456.863 8.62693L457.572 8.62691L457.572 4.62691L456.863 4.62693L456.863 8.62693ZM476.346 9.00792L473.583 6.24497L470.755 9.07339L473.518 11.8363L476.346 9.00792ZM471.426 5.80259C471.561 5.7485 471.747 5.69875 471.973 5.69875V9.69875C472.338 9.69875 472.656 9.61858 472.913 9.51577L471.426 5.80259ZM471.973 5.69875H470.717V9.69875H471.973V5.69875ZM470.717 5.69875C469.537 5.69875 468.392 6.17296 467.558 7.00772L470.387 9.83515C470.471 9.7514 470.598 9.69875 470.717 9.69875V5.69875ZM467.558 7.00725L463.959 10.607L466.787 13.4354L470.387 9.83563L467.558 7.00725ZM463.959 10.607C464.013 10.5527 464.086 10.5266 464.151 10.5266V14.5266C465.101 14.5266 466.059 14.1634 466.787 13.4354L463.959 10.607ZM464.151 10.5266C464.216 10.5266 464.289 10.5526 464.343 10.6068L461.516 13.4362C462.243 14.1634 463.201 14.5266 464.151 14.5266V10.5266ZM464.344 10.6073L460.73 6.99406L457.902 9.82249L461.515 13.4357L464.344 10.6073ZM460.731 6.99473C459.897 6.15956 458.752 5.6856 457.572 5.6856V9.6856C457.691 9.6856 457.818 9.73828 457.901 9.82183L460.731 6.99473ZM457.572 5.6856H456.027V9.6856H457.572V5.6856ZM456.027 5.6856C456.279 5.6856 456.465 5.74563 456.547 5.77654L455.137 9.51982C455.335 9.59451 455.644 9.6856 456.027 9.6856V5.6856ZM454.428 6.23397L451.654 9.00793L454.482 11.8363L457.256 9.06239L454.428 6.23397ZM451.654 9.00792C449.449 11.2129 449.449 14.7877 451.654 16.9926L454.482 14.1642C453.839 13.5213 453.839 12.4792 454.482 11.8363L451.654 9.00792ZM451.654 16.9926L454.428 19.7665L457.256 16.938L454.482 14.1642L451.654 16.9926ZM456.545 20.2244C456.465 20.2548 456.279 20.3148 456.027 20.3148V16.3148C455.644 16.3148 455.335 16.406 455.138 16.4801L456.545 20.2244ZM456.027 20.3148H457.572V16.3148H456.027V20.3148ZM457.572 20.3148C458.752 20.3148 459.897 19.8409 460.731 19.006L457.902 16.1786C457.818 16.2621 457.691 16.3148 457.572 16.3148V20.3148ZM460.73 19.0065L464.343 15.3936L461.515 12.5652L457.902 16.1781L460.73 19.0065ZM464.343 15.3942C464.255 15.4824 464.175 15.49 464.151 15.49C464.128 15.49 464.047 15.4823 463.958 15.3932L466.788 12.5662C465.354 11.1305 462.949 11.1325 461.516 12.5646L464.343 15.3942ZM463.959 15.3939L467.558 18.9933L470.387 16.1648L466.787 12.5654L463.959 15.3939ZM467.558 18.9928C468.392 19.8276 469.537 20.3018 470.717 20.3018V16.3018C470.598 16.3018 470.471 16.2491 470.387 16.1654L467.558 18.9928ZM470.717 20.3018H471.973V16.3018H470.717V20.3018ZM471.973 20.3018C471.748 20.3018 471.561 20.2521 471.425 20.1977L472.913 16.485C472.656 16.3818 472.337 16.3018 471.973 16.3018V20.3018ZM473.583 19.7556L476.346 16.9926L473.518 14.1642L470.755 16.9271L473.583 19.7556ZM476.346 16.9926C478.551 14.7876 478.551 11.2129 476.346 9.00798L473.518 11.8363C474.161 12.4792 474.161 13.5214 473.518 14.1642L476.346 16.9926Z" fill="white" mask="url(#path-7-inside-1_9_4927)"/>
<path fill-rule="evenodd" clip-rule="evenodd" d="M530 13.0002C530 12.4479 530.336 12.0002 530.75 12.0002H547.25C547.664 12.0002 548 12.4479 548 13.0002C548 13.5525 547.664 14.0002 547.25 14.0002H530.75C530.336 14.0002 530 13.5525 530 13.0002Z" fill="white"/>
<path fill-rule="evenodd" clip-rule="evenodd" d="M602 13.0002C602 12.586 602.336 12.2502 602.75 12.2502H619.25C619.664 12.2502 620 12.586 620 13.0002C620 13.4144 619.664 13.7502 619.25 13.7502H602.75C602.336 13.7502 602 13.4144 602 13.0002Z" fill="white"/>
<path fill-rule="evenodd" clip-rule="evenodd" d="M611 4.00023C611.414 4.00023 611.75 4.33602 611.75 4.75023V21.2502C611.75 21.6644 611.414 22.0002 611 22.0002C610.586 22.0002 610.25 21.6644 610.25 21.2502V4.75023C610.25 4.33602 610.586 4.00023 611 4.00023Z" fill="white"/>
<path fill-rule="evenodd" clip-rule="evenodd" d="M680.14 1.00037C680.756 1.00037 681.256 1.41365 681.256 1.92344V6.5388C681.256 7.0486 680.756 7.46187 680.14 7.46187C679.523 7.46187 679.023 7.0486 679.023 6.5388V1.92344C679.023 1.41365 679.523 1.00037 680.14 1.00037Z" fill="white"/>
<path fill-rule="evenodd" clip-rule="evenodd" d="M680.14 10.6926C680.756 10.6926 681.256 11.1059 681.256 11.6157V24.0772C681.256 24.587 680.756 25.0002 680.14 25.0002C679.523 25.0002 679.023 24.587 679.023 24.0772V11.6157C679.023 11.1059 679.523 10.6926 680.14 10.6926Z" fill="white"/>
<path fill-rule="evenodd" clip-rule="evenodd" d="M676.416 1.01293C677.024 1.09674 677.435 1.57233 677.334 2.0752L676.234 7.53351C676.256 8.36441 676.665 9.15738 677.377 9.74636C678.11 10.3522 679.103 10.6926 680.14 10.6926C681.176 10.6926 682.169 10.3522 682.902 9.74636C683.614 9.15738 684.023 8.36441 684.046 7.53351L682.945 2.0752C682.844 1.57233 683.255 1.09674 683.863 1.01293C684.471 0.929122 685.046 1.26883 685.148 1.77169L686.264 7.31012C686.274 7.36027 686.279 7.41103 686.279 7.46187C686.279 8.80835 685.632 10.0997 684.481 11.0518C683.329 12.0039 681.768 12.5388 680.14 12.5388C678.511 12.5388 676.95 12.0039 675.798 11.0518C674.647 10.0997 674 8.80835 674 7.46187C674 7.41103 674.005 7.36027 674.015 7.31012L675.131 1.77169C675.233 1.26883 675.808 0.929122 676.416 1.01293Z" fill="white"/>
<path fill-rule="evenodd" clip-rule="evenodd" d="M697.524 1.16739C697.822 1.34014 698 1.62233 698 1.92344V24.0772C698 24.587 697.5 25.0002 696.884 25.0002C696.267 25.0002 695.767 24.587 695.767 24.0772V17.6157H689.07C688.753 17.6157 688.451 17.5044 688.239 17.3095C688.028 17.1147 687.926 16.8547 687.96 16.5942L689.07 16.6926C687.96 16.5942 687.96 16.5945 687.96 16.5942L687.96 16.5905L687.961 16.5822L687.966 16.5516C687.969 16.5252 687.975 16.4869 687.982 16.4373C687.996 16.3382 688.018 16.1942 688.047 16.0112C688.107 15.6454 688.198 15.1229 688.327 14.4911C688.584 13.2295 688.993 11.5216 689.6 9.74869C690.206 7.98267 691.02 6.11396 692.104 4.55073C693.174 3.00799 694.6 1.62795 696.502 1.05595C696.844 0.953043 697.226 0.994636 697.524 1.16739ZM690.343 15.7695H695.767V3.5856C695.16 4.05446 694.583 4.68839 694.041 5.4692C693.085 6.84826 692.329 8.55645 691.748 10.252C691.17 11.9406 690.777 13.5788 690.528 14.798C690.453 15.1639 690.392 15.4911 690.343 15.7695Z" fill="white"/>
<path fill-rule="evenodd" clip-rule="evenodd" d="M768.431 1.54779C769.324 1.16012 770.285 0.973893 771.251 1.00323C772.218 1.03256 773.167 1.27665 774.037 1.71713C774.908 2.15726 775.68 2.78296 776.311 3.5511C778.841 6.6197 778.411 11.3056 775.814 14.1522L775.812 14.154L766.437 24.38L765.7 23.7041L766.434 24.3835C766.078 24.767 765.58 25.0002 765.04 25.0002C764.5 25.0002 764.001 24.767 763.646 24.3835L763.643 24.38L754.024 13.8889L754.024 13.8886C753.354 13.1577 752.833 12.2904 752.487 11.342C752.141 10.3936 751.977 9.3808 752.003 8.36472C752.029 7.34864 752.244 6.34672 752.638 5.41957C753.032 4.49272 753.598 3.65724 754.305 2.96679C757.188 0.139268 761.622 0.647083 764.259 3.50881L764.263 3.51343L764.263 3.51344L765.04 4.36745L766.06 3.24794L766.062 3.24526C766.733 2.51465 767.538 1.93532 768.431 1.54779ZM765.04 22.9441L774.337 12.8042C774.337 12.8039 774.337 12.8035 774.338 12.8032C776.346 10.6 776.588 7.03087 774.767 4.8227L774.765 4.82087C774.305 4.25957 773.749 3.81242 773.135 3.50182C772.521 3.19139 771.86 3.0226 771.191 3.00231C770.522 2.98202 769.854 3.11046 769.227 3.38253C768.6 3.65453 768.024 4.06573 767.537 4.59614C767.537 4.59655 767.537 4.59697 767.536 4.59739L765.779 6.52629C765.59 6.7344 765.321 6.85297 765.04 6.8529C764.758 6.85283 764.49 6.73411 764.3 6.5259L762.786 4.86185C760.793 2.70132 757.659 2.47753 755.705 4.39528L755.703 4.39697L755.703 4.39697C755.191 4.89682 754.773 5.51016 754.479 6.20215C754.185 6.89422 754.022 7.64762 754.002 8.41571C753.982 9.18381 754.107 9.94661 754.366 10.6567C754.625 11.3665 755.011 12.0057 755.498 12.5373C755.499 12.5374 755.499 12.5375 755.499 12.5376L765.04 22.9441Z" fill="white"/>
<path d="M844.752 4.81056L852.19 12.2489M839 25.0002H833.063C832.781 25.0002 832.511 24.8883 832.312 24.689C832.112 24.4897 832 24.2194 832 23.9376V18.0003C832 17.8623 832.027 17.7256 832.079 17.5979C832.132 17.4703 832.209 17.3542 832.306 17.2564L848.245 1.31724C848.344 1.21684 848.462 1.1371 848.592 1.08268C848.722 1.02826 848.861 1.00023 849.002 1.00023C849.143 1.00023 849.283 1.02826 849.413 1.08268C849.543 1.1371 849.661 1.21684 849.759 1.31724L855.683 7.2413C855.784 7.34018 855.864 7.45804 855.918 7.58802C855.972 7.718 856 7.8575 856 7.99842C856 8.13933 855.972 8.27883 855.918 8.40881C855.864 8.53879 855.784 8.65665 855.683 8.75553L839.744 24.6947C839.646 24.792 839.53 24.8691 839.403 24.9216C839.275 24.974 839.138 25.0007 839 25.0002Z" stroke="#E1E1E6" stroke-width="2" stroke-linecap="round" stroke-linejoin="round"/>
</svg>
